# xmcd
#
# Track frame offsets:
#	150
#	15973
#	34573
#	54955
#	74805
#
# Disc length: 1245 seconds
#
# Revision: 0
# Processed by: cddbd v1.4PL0 Copyright (c) Steve Scherf et al.
# Submitted via: dBpowerAMP V4.0
#
DISCID=3604db05
DTITLE=Andrew Strong - Andrew Strong
DYEAR=2001
DGENRE=Blues
TTITLE0=Dangerous bends
TTITLE1=Take a look inside
TTITLE2=Dreams
TTITLE3=Between the lines
TTITLE4=Seen it all before
EXTD=
EXTT0=
EXTT1=
EXTT2=
EXTT3=
EXTT4=
PLAYORDER=
